<svg width="131" height="131" viewBox="0 0 131 131" fill="none" xmlns="http://www.w3.org/2000/svg"> <g clip-path="url(#clip0_68_229)"> <path d="M118.498 31.115C118.063 30.3918 117.612 29.6818 117.138 28.9875C110.85 19.7494 100.383 13.4247 90.212 10.5611C85.7554 9.30347 81.1809 8.64585 76.6142 8.47817C46.6571 7.39087 35.6505 32.0896 25.9984 38.4588C16.3463 44.828 1.53286 55.7063 3.39306 78.5579C4.80262 95.9338 14.6879 112.547 32.7397 120.106C34.7283 120.942 36.8164 121.667 39.0041 122.267C43.073 123.386 47.4824 124.091 52.2351 124.301C65.8827 124.908 76.9653 121.618 87.8042 113.333C90.3247 111.407 92.8294 109.236 96.0991 108.997C98.4755 108.824 100.729 109.678 98.2449 111.976C95.3262 114.675 98.6929 119.985 106.108 116.296C118.487 110.134 123.58 96.8403 125.98 83.3237C128.925 66.7312 127.497 46.0961 118.498 31.115Z" fill="#87F94A"/> <path opacity="0.7" d="M118.498 31.115C118.063 30.3918 117.612 29.6818 117.138 28.9875C110.85 19.7494 100.383 13.4247 90.212 10.5611C85.7554 9.30347 81.1809 8.64585 76.6142 8.47817C46.6571 7.39087 35.6505 32.0896 25.9984 38.4588C16.3463 44.828 1.53286 55.7063 3.39306 78.5579C4.80262 95.9338 14.6879 112.547 32.7397 120.106C34.7283 120.942 36.8164 121.667 39.0041 122.267C43.073 123.386 47.4824 124.091 52.2351 124.301C65.8827 124.908 76.9653 121.618 87.8042 113.333C90.3247 111.407 92.8294 109.236 96.0991 108.997C98.4755 108.824 100.729 109.678 98.2449 111.976C95.3262 114.675 98.6929 119.985 106.108 116.296C118.487 110.134 123.58 96.8403 125.98 83.3237C128.925 66.7312 127.497 46.0961 118.498 31.115Z" fill="white"/> <g opacity="0.3"> <path d="M126.91 14.1089H106.196V39.4731H126.91V14.1089Z" fill="#ADADAD" stroke="black" stroke-linecap="round" stroke-linejoin="round"/> <path d="M125.838 15.4214H107.268V38.1604H125.838V15.4214Z" fill="white" stroke="black" stroke-linecap="round" stroke-linejoin="round"/> <path d="M120.706 21.7068H112.4V31.875H120.706V21.7068Z" fill="#ADADAD" stroke="black" stroke-linecap="round" stroke-linejoin="round"/> </g> <g opacity="0.3"> <path d="M65.4951 8.77979H27.1436V105.817H65.4951V8.77979Z" fill="#ADADAD" stroke="black" stroke-linecap="round" stroke-linejoin="round"/> <path d="M60.6296 58.4707H47.2021V71.369H60.6296V58.4707Z" fill="white" stroke="black" stroke-linecap="round" stroke-linejoin="round"/> <path d="M60.6296 29.3572H47.2021V42.2554H60.6296V29.3572Z" fill="white" stroke="black" stroke-linecap="round" stroke-linejoin="round"/> <path d="M60.6296 73.0273H47.2021V85.9256H60.6296V73.0273Z" fill="white" stroke="black" stroke-linecap="round" stroke-linejoin="round"/> <path d="M60.6296 14.6616H47.2021V27.6987H60.6296V14.6616Z" fill="white" stroke="black" stroke-linecap="round" stroke-linejoin="round"/> <path d="M45.4392 14.6616H32.0117V27.6987H45.4392V14.6616Z" fill="white" stroke="black" stroke-linecap="round" stroke-linejoin="round"/> <path d="M60.6296 43.9138H47.2021V56.8121H60.6296V43.9138Z" fill="white" stroke="black" stroke-linecap="round" stroke-linejoin="round"/> <path d="M45.4392 43.9138H32.0117V56.8121H45.4392V43.9138Z" fill="white" stroke="black" stroke-linecap="round" stroke-linejoin="round"/> <path d="M60.6296 87.5867H47.2021V98.5645H60.6296V87.5867Z" fill="white" stroke="black" stroke-linecap="round" stroke-linejoin="round"/> <path d="M45.4392 73.0273H32.0117V85.9256H45.4392V73.0273Z" fill="white" stroke="black" stroke-linecap="round" stroke-linejoin="round"/> <path d="M45.4392 87.5867H32.0117V98.5645H45.4392V87.5867Z" fill="white" stroke="black" stroke-linecap="round" stroke-linejoin="round"/> <path d="M45.4392 58.4707H32.0117V71.369H45.4392V58.4707Z" fill="white" stroke="black" stroke-linecap="round" stroke-linejoin="round"/> <path d="M45.4392 29.3572H32.0117V42.2554H45.4392V29.3572Z" fill="white" stroke="black" stroke-linecap="round" stroke-linejoin="round"/> <path d="M29.1797 8.97632V105.73" stroke="black" stroke-linecap="round" stroke-linejoin="round"/> <path d="M65.4951 105.819H103.847L103.847 8.7824H65.4951L65.4951 105.819Z" fill="#ADADAD" stroke="black" stroke-linecap="round" stroke-linejoin="round"/> <path d="M83.7908 58.4709H70.3633V71.3692H83.7908V58.4709Z" fill="white" stroke="black" stroke-linecap="round" stroke-linejoin="round"/> <path d="M83.7908 29.3574H70.3633V42.2557H83.7908V29.3574Z" fill="white" stroke="black" stroke-linecap="round" stroke-linejoin="round"/> <path d="M83.7908 73.0276H70.3633V85.9258H83.7908V73.0276Z" fill="white" stroke="black" stroke-linecap="round" stroke-linejoin="round"/> <path d="M83.7908 14.6619H70.3633V27.699H83.7908V14.6619Z" fill="white" stroke="black" stroke-linecap="round" stroke-linejoin="round"/> <path d="M98.9812 14.6619H85.5537V27.699H98.9812V14.6619Z" fill="white" stroke="black" stroke-linecap="round" stroke-linejoin="round"/> <path d="M83.7908 43.9141H70.3633V56.8123H83.7908V43.9141Z" fill="white" stroke="black" stroke-linecap="round" stroke-linejoin="round"/> <path d="M98.9812 43.9141H85.5537V56.8123H98.9812V43.9141Z" fill="white" stroke="black" stroke-linecap="round" stroke-linejoin="round"/> <path d="M83.7908 87.5869H70.3633V98.5647H83.7908V87.5869Z" fill="white" stroke="black" stroke-linecap="round" stroke-linejoin="round"/> <path d="M98.9812 73.0276H85.5537V85.9258H98.9812V73.0276Z" fill="white" stroke="black" stroke-linecap="round" stroke-linejoin="round"/> <path d="M98.9812 87.5869H85.5537V98.5647H98.9812V87.5869Z" fill="white" stroke="black" stroke-linecap="round" stroke-linejoin="round"/> <path d="M98.9812 58.4709H85.5537V71.3692H98.9812V58.4709Z" fill="white" stroke="black" stroke-linecap="round" stroke-linejoin="round"/> <path d="M98.9812 29.3574H85.5537V42.2557H98.9812V29.3574Z" fill="white" stroke="black" stroke-linecap="round" stroke-linejoin="round"/> <path d="M101.813 8.97632V105.73" stroke="black" stroke-linecap="round" stroke-linejoin="round"/> </g> <path d="M29.037 93.4316H16.0732L17.3701 110.718H27.7401L29.037 93.4316Z" fill="#999999"/> <path d="M21.7959 58.2241V96.0569L23.1216 94.7312V72.7258L27.2245 63.0292L22.8675 71.1617L22.705 59.4215L21.7959 58.2241Z" fill="#999999"/> <path d="M19.2175 56.555L11.6693 51.7761L16.1967 56.6808L8.90259 54.9201L14.0587 57.4354H5.25554L12.5496 58.5698L3.99794 60.2047L10.9147 59.9532L4.50098 62.5941L11.4178 61.4623L2.2373 67.7503L13.1784 62.4684L7.39347 68.2533L12.6754 64.8578L8.90259 71.5231L14.436 65.1093L11.6693 70.8943L16.5766 64.7321V69.0079L18.8402 63.8517V66.7442L21.1039 60.7077V63.726L22.7047 59.4213L23.1161 58.3183L18.2114 51.6504L19.7206 55.6747L18.2114 54.4171L19.2175 56.555Z" fill="#87F94A"/> <path d="M18.2613 68.387L9.39787 69.4874L16.0107 70.4018L9.25639 73.6742L14.837 72.3432L8.03809 77.9343L14.3916 74.1746L8.82409 80.8687L14.0064 76.2811L10.7288 82.3962L15.3531 77.1274L12.2563 87.8169L17.3522 76.7867L16.5583 84.9297L18.4814 78.9535L19.7993 86.4965L20.001 78.0286L21.5389 84.2537L21.4132 76.3807L24.1275 79.6819L22.6027 74.2611L24.4393 76.4959L22.3538 70.3966L24.2716 72.7257L22.7756 68.387L22.3904 67.2709L14.3706 65.2378L18.091 67.3888L16.126 67.3757L18.2613 68.387Z" fill="#87F94A"/> <path d="M18.2613 68.387L9.39787 69.4874L16.0107 70.4018L9.25639 73.6742L14.837 72.3432L8.03809 77.9343L14.3916 74.1746L8.82409 80.8687L14.0064 76.2811L10.7288 82.3962L15.3531 77.1274L12.2563 87.8169L17.3522 76.7867L16.5583 84.9297L18.4814 78.9535L19.7993 86.4965L20.001 78.0286L21.5389 84.2537L21.4132 76.3807L24.1275 79.6819L22.6027 74.2611L24.4393 76.4959L22.3538 70.3966L24.2716 72.7257L22.7756 68.387L22.3904 67.2709L14.3706 65.2378L18.091 67.3888L16.126 67.3757L18.2613 68.387Z" fill="#87F94A"/> <path d="M26.3385 54.2443L38.0578 52.5963L29.9148 56.0442L39.6796 57.9018L32.0816 58.1219L42.7083 62.9296L33.2868 60.3122L42.7161 66.9565L34.5051 62.8746L40.8035 69.5634L33.0719 64.4204L40.7197 77.0252L30.3969 64.6745L34.2221 74.8165L29.7 67.8342L30.6144 77.9396L27.4389 67.1766L27.6197 75.668L25.0626 65.5522L22.7282 70.7136L22.812 63.2545L21.2321 66.7443L21.7954 58.2241L20.1475 61.8659L20.5667 55.798L20.6741 54.2391L30.2318 48.8733L26.2128 52.9081L28.7227 52.2138L26.3385 54.2443Z" fill="#87F94A"/> <path d="M24.819 52.1797L29.5978 44.6341L24.6932 49.1615L26.4538 41.8674L23.9386 47.0236V38.2204L22.8068 45.5145L21.1719 36.9628L21.4234 43.8796L18.7825 37.4658L19.9143 44.3826L13.6263 35.2021L18.9082 46.1433L13.1233 40.3583L16.5188 45.6402L9.85352 41.8674L16.2673 47.4009L10.4823 44.6341L16.6446 49.5388H12.3687L17.5249 51.8025H14.6324L20.6689 54.0661H17.6506L21.9527 55.667L23.0583 56.0783L29.7236 51.1737L25.6993 52.6828L26.9569 51.1737L24.819 52.1797Z" fill="#87F94A"/> <path d="M72.1256 59.0602C71.5623 55.848 69.5161 53.959 69.5161 53.959C67.0271 52.5128 65.0595 54.1188 65.0595 54.1188C65.0595 54.1188 63.0918 52.5128 60.6028 53.959C60.6028 53.959 58.554 55.8454 57.9933 59.0602C57.43 62.2723 59.6387 63.6792 59.6387 63.6792H70.4829C70.4829 63.6792 72.6915 62.2749 72.1282 59.0602H72.1256Z" fill="#263238" stroke="#263238" stroke-linecap="round" stroke-linejoin="round"/> <path d="M73.5322 62.6521C73.5322 62.6521 78.167 62.2329 79.9276 65.2512C81.6883 68.2668 86.5484 82.0952 86.1292 82.8497C85.71 83.6043 82.6944 83.6043 81.6044 82.7659C80.5145 81.9275 75.5706 73.5487 75.5706 73.5487L73.5348 62.6548L73.5322 62.6521Z" fill="white" stroke="#263238" stroke-linecap="round" stroke-linejoin="round"/> <path d="M74.6045 66.5166C74.6045 66.5166 76.5669 71.6361 76.9887 75.7731L75.5713 73.5487L74.6045 66.5166Z" fill="#263238" stroke="#263238" stroke-linecap="round" stroke-linejoin="round"/> <path d="M77.0382 89.9734C76.2234 87.4582 73.6951 82.3466 73.6951 82.0112C73.6951 81.6759 75.8146 75.4743 75.8146 72.7102C75.8146 69.9461 73.5326 62.6547 73.5326 62.6547C73.5326 62.6547 70.0454 62.0835 69.2411 61.1717C68.4367 60.26 68.5651 55.6959 68.5651 55.6959L65.0517 55.282L61.5383 55.6959C61.5383 55.6959 61.664 60.26 60.8623 61.1717C60.058 62.0835 56.5707 62.6547 56.5707 62.6547C56.5707 62.6547 54.2887 69.9461 54.2887 72.7102C54.2887 75.4743 56.4083 81.6785 56.4083 82.0112C56.4083 82.344 53.88 87.4582 53.0652 89.9734C52.2504 92.4886 51.5168 97.3487 51.4355 99.6098L65.0543 107.907L78.6731 99.6098C78.5918 97.3461 77.8582 92.486 77.0434 89.9734H77.0382Z" fill="white" stroke="#263238" stroke-linecap="round" stroke-linejoin="round"/> <path d="M64.3936 57.8181L68.2371 58.6015L68.1506 55.5938L64.3936 57.8181Z" fill="#263238" stroke="#263238" stroke-linecap="round" stroke-linejoin="round"/> <path d="M59.6338 63.6791C59.6338 63.6791 63.176 63.4905 63.8991 63.5429" stroke="#263238" stroke-linecap="round" stroke-linejoin="round"/> <path d="M70.4772 63.6792L66.7463 63.4565C66.7463 63.4565 65.7979 63.6295 65.7979 64.2321" stroke="#263238" stroke-linecap="round" stroke-linejoin="round"/> <path d="M70.3386 43.0886C69.9639 42.5384 69.4792 42.1192 68.7745 41.7419C68.1666 41.417 67.5064 41.1838 66.8383 41.0057C64.5667 40.3952 60.7835 40.914 59.4944 43.0964C58.4202 44.9147 58.339 45.6352 58.5381 47.3277C58.7372 49.0203 59.8114 54.9415 60.7677 55.958C61.724 56.9746 63.8751 57.8182 64.3912 57.8182H65.4261C65.9449 57.8182 68.0933 56.972 69.0496 55.958C70.0059 54.9415 71.0801 49.0203 71.2792 47.3277C71.4076 46.2352 71.2792 45.1374 70.8652 44.1104C70.708 43.7226 70.5377 43.3873 70.336 43.0886H70.3386Z" fill="white" stroke="#263238" stroke-linecap="round" stroke-linejoin="round"/> <path d="M61.2656 49.1827C61.2656 49.1827 62.4682 49.7617 63.7127 48.96" stroke="#263238" stroke-linecap="round" stroke-linejoin="round"/> <path d="M63.9794 46.5549C63.9794 46.5549 61.9751 45.4414 60.8643 47.223" stroke="#263238" stroke-width="2" stroke-linecap="round" stroke-linejoin="round"/> <path d="M68.8768 49.1827C68.8768 49.1827 67.6742 49.7617 66.4297 48.96" stroke="#263238" stroke-linecap="round" stroke-linejoin="round"/> <path d="M66.1602 46.5549C66.1602 46.5549 68.1645 45.4414 69.2753 47.223" stroke="#263238" stroke-width="2" stroke-linecap="round" stroke-linejoin="round"/> <path d="M66.1599 47.6238C66.1599 47.6238 65.4918 49.539 65.759 49.7172C66.0263 49.8953 66.3826 50.2962 66.2044 50.7861C66.0263 51.2761 65.5809 51.4097 65.4473 51.4097" stroke="#263238" stroke-linecap="round" stroke-linejoin="round"/> <path d="M65.6276 53.6341C65.6276 53.8804 65.4573 54.0795 65.2503 54.0795C65.0433 54.0795 64.873 53.8804 64.873 53.6341C64.873 53.3878 65.0433 53.1887 65.2503 53.1887C65.4573 53.1887 65.6276 53.3878 65.6276 53.6341Z" fill="#263238"/> <path d="M70.8703 44.2833C70.7132 43.8746 70.5429 43.5209 70.3411 43.2091C69.9665 42.6301 69.4818 42.1899 68.777 41.7943C68.1691 41.4537 67.5089 41.2074 66.8408 41.0188C64.8024 40.4424 62.1274 40.7594 60.448 42.1166C58.5956 43.6126 58.0559 46.602 58.7528 48.7897C59.0934 48.6509 59.3293 48.2893 59.3188 47.9225C59.3057 47.4221 58.8891 46.9898 58.9022 46.4894C58.9153 46.0073 59.3109 45.6379 59.6043 45.2553C60.3117 44.3331 60.5685 43.0283 61.551 42.4074C62.1038 42.0563 62.7955 41.9987 63.4479 42.0354C63.9928 42.0668 64.5326 42.1637 65.0801 42.1716C65.5334 42.1768 65.9369 42.0301 66.3875 41.9961C67.2836 41.9306 68.2032 42.279 68.7613 42.9969C69.4529 43.8877 69.7804 45.0457 70.4721 45.7558C71.1638 46.4684 70.5953 47.0029 70.3909 47.7601C70.2154 48.4124 70.9175 48.8002 71.114 48.8945C71.1926 48.3941 71.2502 47.9697 71.2843 47.671C71.4127 46.5234 71.2843 45.368 70.8703 44.2859V44.2833Z" fill="#263238" stroke="#263238" stroke-linecap="round" stroke-linejoin="round"/> <path d="M58.7504 48.7872C58.7504 48.7872 58.1032 48.2029 57.5688 48.7793C57.0343 49.3583 57.3906 50.6054 57.7024 51.1373C58.0142 51.6692 59.4394 52.2953 59.4394 52.2953L58.7504 48.7845V48.7872Z" fill="white" stroke="#263238" stroke-linecap="round" stroke-linejoin="round"/> <path d="M71.1669 48.7872C71.1669 48.7872 71.8455 48.2369 72.3459 48.8448C72.8463 49.4526 72.4245 50.6762 72.0839 51.1923C71.7433 51.7084 70.373 52.201 70.373 52.201L71.1669 48.7845V48.7872Z" fill="white" stroke="#263238" stroke-linecap="round" stroke-linejoin="round"/> <path d="M51.4333 99.6098L67.2319 109.752L78.6682 99.6098C78.6053 97.8465 78.1442 94.5034 77.5573 91.9253C63.5848 93.6807 55.1799 92.5122 52.5206 92.0118C51.9442 94.5794 51.4935 97.8648 51.4307 99.6098H51.4333Z" fill="#263238" stroke="#263238" stroke-linecap="round" stroke-linejoin="round"/> <path d="M52.3555 92.8083C64.8738 95.0301 74.7931 93.2563 77.7118 92.6118C77.5048 91.6162 77.2769 90.6966 77.0411 89.9735C76.2263 87.4583 73.698 82.3466 73.698 82.0113C73.698 81.6759 75.8176 75.4744 75.8176 72.7103C75.8176 69.9462 73.5356 62.6547 73.5356 62.6547C73.5356 62.6547 72.5426 62.4923 71.4946 62.2015C71.5522 64.6643 71.2876 73.4098 64.5123 72.5426C57.8758 71.6963 58.4365 64.4258 58.7771 62.1543C57.6714 62.4739 56.5763 62.6521 56.5763 62.6521C56.5763 62.6521 54.2943 69.9436 54.2943 72.7077C54.2943 75.4718 56.4139 81.6759 56.4139 82.0087C56.4139 82.3414 53.8855 87.4556 53.0707 89.9708C52.8218 90.7411 52.5782 91.7341 52.3607 92.8057L52.3555 92.8083Z" fill="#87F94A" stroke="#263238" stroke-linecap="round" stroke-linejoin="round"/> <path d="M62.5947 92.2477C62.5947 92.2477 69.1683 90.0573 69.8102 89.5779C70.4521 89.0958 71.3324 88.6976 71.3324 88.6976L76.1401 87.8172L75.5794 86.4548C75.5794 86.4548 69.8888 87.4976 68.4478 88.2181C67.0042 88.9386 62.5947 92.2503 62.5947 92.2503V92.2477Z" fill="#263238" stroke="#263238" stroke-linecap="round" stroke-linejoin="round"/> <path d="M59.9326 81.4846L70.5436 77.345" stroke="#263238" stroke-linecap="round" stroke-linejoin="round"/> <path d="M69.768 78.896L66.1445 80.1903" stroke="#263238" stroke-linecap="round" stroke-linejoin="round"/> <path d="M56.5703 62.6522C56.5703 62.6522 52.8577 62.1491 50.2587 64.832C47.6596 67.5149 43.2188 74.7199 43.2188 75.8936C43.2188 77.0674 46.402 77.3189 48.4142 76.3128C50.4264 75.3068 54.5319 69.9436 54.5319 69.9436L56.5676 62.6522H56.5703Z" fill="white" stroke="#263238" stroke-linecap="round" stroke-linejoin="round"/> <path d="M82.139 78.6183C81.8796 78.6052 80.5041 79.3834 79.2963 80.1641C77.7531 81.1623 73.1497 84.5264 71.2214 84.8592C69.2931 85.1945 68.5386 85.0268 68.5386 85.0268C68.5386 85.0268 66.2644 84.0208 65.6775 83.9369C65.0906 83.8531 64.116 84.1439 63.3195 84.2775C62.523 84.4111 61.9912 84.212 62.0252 84.4426C62.0593 84.6758 62.0907 85.0399 62.6226 85.1736C63.1545 85.3072 63.9509 85.2391 63.9509 85.2391C63.9509 85.2391 64.7474 85.2731 64.881 85.3046C65.0146 85.3386 59.6672 87.7936 59.6672 87.7936C59.6672 87.7936 59.6017 87.9272 59.8323 88.0582C60.0655 88.1918 62.5911 87.6678 62.5911 87.6678L62.6881 87.9586C62.6881 87.9586 59.269 89.452 59.2009 89.5856C59.1354 89.7193 59.1668 90.0179 59.4 90.0179C59.6332 90.0179 62.8793 88.9988 62.8793 88.9988L62.9527 89.321C62.9527 89.321 60.3641 91.0135 60.296 91.1131C60.2305 91.2127 60.296 91.5113 60.5292 91.4773C60.7624 91.4432 63.516 90.2826 63.516 90.2826L63.6287 90.4869C63.6287 90.4869 62.1195 91.9436 62.1536 92.0773C62.1877 92.2109 62.3868 92.3759 62.5859 92.2423C62.785 92.1087 65.0435 90.8799 65.0435 90.8799C65.0435 90.8799 68.2634 89.6171 68.4626 89.5516C68.6617 89.4861 70.8861 88.0896 70.8861 88.0896C70.8861 88.0896 78.1251 87.1281 81.1774 85.6006C84.2323 84.0732 86.0821 83.5387 86.1214 82.8444C86.158 82.1501 85.4271 80.1563 85.4271 80.1563" fill="white"/> <path d="M82.139 78.6183C81.8796 78.6052 80.5041 79.3834 79.2963 80.1641C77.7531 81.1623 73.1497 84.5264 71.2214 84.8592C69.2931 85.1945 68.5386 85.0268 68.5386 85.0268C68.5386 85.0268 66.2644 84.0208 65.6775 83.9369C65.0906 83.8531 64.116 84.1439 63.3195 84.2775C62.523 84.4111 61.9912 84.212 62.0252 84.4426C62.0593 84.6758 62.0907 85.0399 62.6226 85.1736C63.1545 85.3072 63.9509 85.2391 63.9509 85.2391C63.9509 85.2391 64.7474 85.2731 64.881 85.3046C65.0146 85.3386 59.6672 87.7936 59.6672 87.7936C59.6672 87.7936 59.6017 87.9272 59.8323 88.0582C60.0655 88.1918 62.5911 87.6678 62.5911 87.6678L62.6881 87.9586C62.6881 87.9586 59.269 89.452 59.2009 89.5856C59.1354 89.7193 59.1668 90.0179 59.4 90.0179C59.6332 90.0179 62.8793 88.9988 62.8793 88.9988L62.9527 89.321C62.9527 89.321 60.3641 91.0135 60.296 91.1131C60.2305 91.2127 60.296 91.5113 60.5292 91.4773C60.7624 91.4432 63.516 90.2826 63.516 90.2826L63.6287 90.4869C63.6287 90.4869 62.1195 91.9436 62.1536 92.0773C62.1877 92.2109 62.3868 92.3759 62.5859 92.2423C62.785 92.1087 65.0435 90.8799 65.0435 90.8799C65.0435 90.8799 68.2634 89.6171 68.4626 89.5516C68.6617 89.4861 70.8861 88.0896 70.8861 88.0896C70.8861 88.0896 78.1251 87.1281 81.1774 85.6006C84.2323 84.0732 86.0821 83.5387 86.1214 82.8444C86.158 82.1501 85.4271 80.1563 85.4271 80.1563" stroke="#263238" stroke-linecap="round" stroke-linejoin="round"/> <path d="M44.7366 73.0352C44.7366 73.0352 48.1662 71.1435 52.6595 69.6449C57.1528 68.1463 60.0688 67.2004 62.7884 65.9795C65.5079 64.7586 65.1149 65.1516 65.2328 65.1516C65.3507 65.1516 68.7017 65.8616 68.9375 65.9009C69.1733 65.9402 72.6029 67.1611 72.6029 67.1611C72.6029 67.1611 72.6422 67.5148 72.3278 67.6353L72.0134 67.7533C72.0134 67.7533 71.8169 68.107 71.4999 68.1463C71.1855 68.1856 70.4362 68.3035 70.3183 68.3035C70.2004 68.3035 69.7261 68.5392 69.2545 68.6571C68.7829 68.775 68.2694 68.893 67.9943 68.9323C67.7192 68.9716 66.3385 69.0501 66.3385 69.0501C66.3385 69.0501 65.2355 69.3252 64.0512 69.3645C62.8696 69.4039 61.371 69.2073 61.371 69.2073C61.371 69.2073 49.822 77.2481 48.402 78.076C46.9819 78.904 45.5252 79.7712 44.341 79.4568C43.1593 79.1424 42.3314 78.7468 42.5279 77.7616C42.7244 76.7765 43.1986 74.7277 44.734 73.0326L44.7366 73.0352Z" fill="white" stroke="#263238" stroke-linecap="round" stroke-linejoin="round"/> <path d="M65.7832 65.9402C65.7832 65.9402 68.267 66.2546 68.8958 66.2939C69.5272 66.3332 72.6004 67.1611 72.6004 67.1611" stroke="#263238" stroke-linecap="round" stroke-linejoin="round"/> <path d="M65.9824 66.9253L69.6871 67.0851L72.011 67.7532" stroke="#263238" stroke-linecap="round" stroke-linejoin="round"/> <path d="M65.9404 67.8318L67.9133 67.9523L70.3158 68.306" stroke="#263238" stroke-linecap="round" stroke-linejoin="round"/> <path d="M70.7214 105.722C70.7214 105.722 74.3711 100.579 77.8085 98.2292C81.2459 95.8791 88.4064 93.8957 94.3014 96.2459C100.196 98.596 104.477 104.326 104.967 105.136C105.457 105.942 105.038 107.852 104.336 108.809C103.634 109.765 101.881 110.719 100.967 110.719H58.1611C58.1611 110.719 57.9515 109.912 58.6537 109.249C59.3558 108.589 63.4954 107.192 64.3391 106.752C65.1801 106.312 66.1626 103.666 67.7792 103.152C69.3957 102.639 70.7267 105.722 70.7267 105.722H70.7214Z" fill="#263238" stroke="#263238" stroke-linecap="round" stroke-linejoin="round"/> <path d="M97.1339 110.719H58.2766C58.2766 110.719 58.067 109.912 58.764 109.249C59.4583 108.589 63.5586 107.192 64.3943 106.752C65.2275 106.312 66.2021 103.666 67.8003 103.152C69.3985 102.639 70.719 105.722 70.719 105.722C70.719 105.722 71.1356 106.309 71.8325 106.718C72.5268 107.127 73.6875 107.575 73.918 107.575C74.1486 107.575 79.1345 106.922 81.6837 105.696C84.233 104.473 87.9036 102.023 90.8773 101.696C93.851 101.368 96.285 102.838 97.7915 103.899" fill="#263238"/> <path d="M97.1339 110.719H58.2766C58.2766 110.719 58.067 109.912 58.764 109.249C59.4583 108.589 63.5586 107.192 64.3943 106.752C65.2275 106.312 66.2021 103.666 67.8003 103.152C69.3985 102.639 70.719 105.722 70.719 105.722C70.719 105.722 71.1356 106.309 71.8325 106.718C72.5268 107.127 73.6875 107.575 73.918 107.575C74.1486 107.575 79.1345 106.922 81.6837 105.696C84.233 104.473 87.9036 102.023 90.8773 101.696C93.851 101.368 96.285 102.838 97.7915 103.899" stroke="#263238" stroke-linecap="round" stroke-linejoin="round"/> <path d="M98.9494 105.125C98.9494 105.125 97.7521 106.472 96.594 106.676C95.436 106.88 91.2623 106.228 89.8711 105.901" stroke="#919191" stroke-linecap="round" stroke-linejoin="round"/> <path d="M73.915 107.575C74.1456 107.575 79.1315 106.922 81.6807 105.696C84.23 104.473 87.9006 102.023 90.8743 101.696C93.848 101.368 96.282 102.838 97.7885 103.899" stroke="#919191" stroke-linecap="round" stroke-linejoin="round"/> <path d="M73.8316 107.564L73.5041 110.719H58.2766C58.2766 110.719 58.067 109.912 58.764 109.249C59.4583 108.589 63.5586 107.192 64.3943 106.752C65.2275 106.312 66.2021 103.666 67.8003 103.152C69.3985 102.639 70.719 105.722 70.719 105.722C70.719 105.722 71.1356 106.309 71.8325 106.718C72.4666 107.09 73.4831 107.496 73.8342 107.564H73.8316Z" fill="white" stroke="#263238" stroke-linecap="round" stroke-linejoin="round"/> <path d="M62.9294 105.722C62.9294 105.722 59.1094 100.579 55.5095 98.2292C51.9097 95.8791 44.4165 93.8957 38.2464 96.2459C32.0763 98.596 27.5961 104.326 27.0799 105.136C26.5664 105.942 27.0066 107.852 27.7402 108.809C28.4738 109.762 30.3104 110.719 31.2667 110.719H76.0765C76.0765 110.719 76.2966 109.912 75.563 109.249C74.8294 108.589 70.4933 107.192 69.613 106.752C68.7327 106.312 67.703 103.666 66.0131 103.152C64.3232 102.639 62.9268 105.722 62.9268 105.722H62.9294Z" fill="#263238" stroke="#263238" stroke-linecap="round" stroke-linejoin="round"/> <path d="M35.0107 110.719H76.0766C76.0766 110.719 76.2967 109.912 75.5631 109.249C74.8295 108.589 70.4934 107.192 69.613 106.752C68.7327 106.312 67.7031 103.666 66.0132 103.152C64.3233 102.639 62.9268 105.722 62.9268 105.722C62.9268 105.722 62.4866 106.309 61.7504 106.718C61.0142 107.127 59.7907 107.575 59.547 107.575C59.3033 107.575 54.0345 106.922 51.3412 105.696C48.6452 104.473 44.7676 102.023 41.6236 101.696C38.4796 101.368 35.9067 102.838 34.3164 103.899" fill="#263238"/> <path d="M35.0107 110.719H76.0766C76.0766 110.719 76.2967 109.912 75.5631 109.249C74.8295 108.589 70.4934 107.192 69.613 106.752C68.7327 106.312 67.7031 103.666 66.0132 103.152C64.3233 102.639 62.9268 105.722 62.9268 105.722C62.9268 105.722 62.4866 106.309 61.7504 106.718C61.0142 107.127 59.7907 107.575 59.547 107.575C59.3033 107.575 54.0345 106.922 51.3412 105.696C48.6452 104.473 44.7676 102.023 41.6236 101.696C38.4796 101.368 35.9067 102.838 34.3164 103.899" stroke="#263238" stroke-linecap="round" stroke-linejoin="round"/> <path d="M33.0928 105.125C33.0928 105.125 34.3582 106.472 35.5844 106.676C36.8079 106.88 41.2174 106.228 42.6872 105.901" stroke="#919191" stroke-linecap="round" stroke-linejoin="round"/> <path d="M59.547 107.575C59.3033 107.575 54.0345 106.922 51.3412 105.696C48.6452 104.473 44.7676 102.023 41.6236 101.696C38.4796 101.368 35.9067 102.838 34.3164 103.899" stroke="#919191" stroke-linecap="round" stroke-linejoin="round"/> <path d="M59.6361 107.564L59.9819 110.719H76.074C76.074 110.719 76.2941 109.912 75.5605 109.249C74.8269 108.589 70.4908 107.192 69.6104 106.752C68.7301 106.312 67.7005 103.666 66.0106 103.152C64.3207 102.639 62.9242 105.722 62.9242 105.722C62.9242 105.722 62.484 106.309 61.7478 106.718C61.0771 107.09 60.0029 107.496 59.6309 107.564H59.6361Z" fill="white" stroke="#263238" stroke-linecap="round" stroke-linejoin="round"/> <path d="M52.502 97.0449C52.502 97.0449 57.6974 98.5043 62.1933 102.882" stroke="#919191" stroke-linecap="round" stroke-linejoin="round"/> <path d="M77.8113 98.2292C77.8113 98.2292 73.284 100.079 69.4902 102.764" stroke="#919191" stroke-linecap="round" stroke-linejoin="round"/> <path d="M5.90332 110.719H125.09" stroke="#263238" stroke-linecap="round" stroke-linejoin="round"/> </g> <defs> <clipPath id="clip0_68_229"> <rect width="131" height="131" fill="white"/> </clipPath> </defs> </svg>